<svg height="479pt" viewBox="-2 1 479 479.99829" width="479pt" xmlns="http://www.w3.org/2000/svg"><path d="m438.15625 219.308594 26.34375 26.34375 11.3125-11.308594-232-232c-3.125-3.125-8.1875-3.125-11.3125 0l-232 232 11.3125 11.308594 26.34375-26.34375v252.691406c0 4.417969 3.582031 8 8 8h384c4.417969 0 8-3.582031 8-8zm-123.3125-123.308594h-153.375l32-32h89.375zm16 16 32 32h-249.375l32-32zm-92.6875-92.691406 28.6875 28.691406h-57.375zm-140.6875 140.691406h281.375l32 32h-345.375zm55.085938 208h171.199218l14.867188 9.902344c2.214844 1.488281 3.539062 3.984375 3.535156 6.65625v39.441406c0 4.417969-3.582031 8-8 8h-35.058594l-9.367187-18.738281c-4.039063-8.152344-12.363281-13.296875-21.464844-13.261719h-60.222656c-9.097657-.035156-17.421875 5.109375-21.464844 13.261719l-9.367187 18.738281h-35.054688c-4.417969 0-8-3.582031-8-8v-39.441406c0-2.675782 1.335938-5.171875 3.558594-6.65625zm11.703124-16 12.074219-20.121094c1.449219-2.414062 4.0625-3.886718 6.878907-3.878906h109.886718c2.8125 0 5.414063 1.476562 6.859375 3.886719l12.070313 20.113281zm129.898438 112h-112v-16h112zm-99.058594-32 5.792969-11.578125c1.347656-2.71875 4.121094-4.433594 7.152344-4.421875h60.222656c3.035156-.011719 5.808594 1.703125 7.152344 4.421875l5.792969 11.578125zm-44.941406 32v-16h16v16zm160 0v-16h16v16zm32 0v-17.472656c9.554688-3.378906 15.957031-12.394532 16-22.527344v-39.441406c.007812-8.035156-4.003906-15.542969-10.6875-20l-15.378906-10.257813-18.398438-30.679687c-4.363281-7.207032-12.167968-11.613282-20.59375-11.621094h-109.886718c-8.425782.019531-16.226563 4.441406-20.574219 11.652344l-18.402344 30.683594-15.375 10.253906c-6.683594 4.449218-10.699219 11.941406-10.703125 19.96875v39.441406c.039062 10.132812 6.445312 19.148438 16 22.527344v17.472656h-32v-208h272v208zm80 0h-32v-216c0-4.421875-3.582031-8-8-8h-288c-4.417969 0-8 3.578125-8 8v216h-32v-256h368zm0 0"/><path d="m150.15625 392h24v16h-24zm0 0"/><path d="m302.15625 392h24v16h-24zm0 0"/></svg>