<svg height="422pt" viewBox="0 -29 422 422" width="422pt" xmlns="http://www.w3.org/2000/svg"><path d="m0 294.300781c0 6.597657 5.800781 12.699219 12.398438 12.699219h397.101562c6.601562 0 12.398438-6.101562 12.398438-12.699219v-41.300781h-421.898438zm188-27.300781h46c4.417969 0 8 3.582031 8 8s-3.582031 8-8 8h-46c-4.417969 0-8-3.582031-8-8s3.582031-8 8-8zm0 0"/><path d="m409.601562 0h-397.203124c-6.597657 0-12.398438 4.699219-12.398438 11.300781v225.699219h422v-225.699219c0-6.601562-5.800781-11.300781-12.398438-11.300781zm0 0"/><path d="m326.898438 347h-63.898438v-24h-104v24h-64.5c-4.417969 0-8 3.582031-8 8s3.582031 8 8 8h232.398438c4.417968 0 8-3.582031 8-8s-3.582032-8-8-8zm0 0"/></svg>