<svg height="512pt" viewBox="0 0 512 512" width="512pt" xmlns="http://www.w3.org/2000/svg"><path d="m486.398438 179.199219h-17.066407v-170.664063c0-4.714844-3.820312-8.535156-8.53125-8.535156h-409.601562c-4.710938 0-8.53125 3.820312-8.53125 8.535156v170.664063h-17.066407c-14.140624 0-25.601562 11.460937-25.601562 25.601562v102.398438c0 14.140625 11.460938 25.601562 25.601562 25.601562h5l-8.9375 8.933594c-12.429687 1.933594-21.617187 12.617187-21.664062 25.199219v136.53125c0 4.714844 3.820312 8.535156 8.535156 8.535156h34.132813c3.914062 0 7.328125-2.667969 8.277343-6.46875l6.910157-27.664062h396.289062l6.910157 27.664062c.949218 3.800781 4.363281 6.46875 8.277343 6.46875h34.132813c4.714844 0 8.535156-3.820312 8.535156-8.535156v-136.53125c-.046875-12.582032-9.234375-23.265625-21.664062-25.199219l-8.9375-8.933594h5c14.140624 0 25.601562-11.460937 25.601562-25.601562v-102.398438c0-14.140625-11.460938-25.601562-25.601562-25.601562zm-426.664063-162.132813h392.53125v162.132813h-17.066406c-14.136719 0-25.597657 11.460937-25.597657 25.601562v17.066407h-307.203124v-17.066407c0-14.140625-11.460938-25.601562-25.597657-25.601562h-17.066406zm290.132813 290.132813h-52.507813l-5.691406-34.132813h117.933593v34.132813c0 14.140625 11.460938 25.601562 25.597657 25.601562h5l-8.53125 8.53125h-56.203125v-8.53125c0-14.140625-11.460938-25.601562-25.597656-25.601562zm-247.46875-51.199219v-17.066406h307.203124v17.066406zm177.65625 51.199219h-48.109376l5.683594-34.132813h36.742188zm-59.734376-34.132813-5.691406 34.132813h-52.496094c-14.136718 0-25.597656 11.460937-25.597656 25.601562v8.53125h-56.203125l-8.53125-8.53125h5c14.136719 0 25.597657-11.460937 25.597657-25.601562v-34.132813zm-66.71875 59.734375c0-4.714843 3.820313-8.535156 8.53125-8.535156h187.734376c4.710937 0 8.53125 3.820313 8.53125 8.535156v8.53125h-204.796876zm-128-17.066406c-4.714843 0-8.535156-3.820313-8.535156-8.535156v-102.398438c0-4.714843 3.820313-8.535156 8.535156-8.535156h51.199219c4.710938 0 8.53125 3.820313 8.53125 8.535156v102.398438c0 4.714843-3.820312 8.535156-8.53125 8.535156zm30.597657 25.597656h-10l5-5zm-20.195313 153.601563h-18.9375v-17.066406h23.203125zm458.929688 0h-18.9375l-4.265625-17.066406h23.203125zm-8.535156-136.535156c4.714843 0 8.535156 3.820312 8.535156 8.535156v93.867187h-477.867188v-93.867187c0-4.714844 3.820313-8.535156 8.535156-8.535156zm-30.597657-17.066407 5-5 5 5zm39.132813-34.132812c0 4.714843-3.820313 8.535156-8.535156 8.535156h-51.199219c-4.710938 0-8.53125-3.820313-8.53125-8.535156v-102.398438c0-4.714843 3.820312-8.535156 8.53125-8.535156h51.199219c4.714843 0 8.535156 3.820313 8.535156 8.535156zm0 0"/><path d="m460.800781 247.464844c-14.140625 0-25.601562 11.464844-25.601562 25.601562 0 14.140625 11.460937 25.601563 25.601562 25.601563 14.136719 0 25.597657-11.460938 25.597657-25.601563 0-14.136718-11.460938-25.601562-25.597657-25.601562zm0 34.136718c-4.714843 0-8.535156-3.820312-8.535156-8.535156 0-4.710937 3.820313-8.53125 8.535156-8.53125 4.710938 0 8.53125 3.820313 8.53125 8.53125 0 4.714844-3.820312 8.535156-8.53125 8.535156zm0 0"/><path d="m452.265625 213.332031h17.066406v17.066407h-17.066406zm0 0"/><path d="m51.199219 247.464844c-14.136719 0-25.597657 11.464844-25.597657 25.601562 0 14.140625 11.460938 25.601563 25.597657 25.601563 14.140625 0 25.601562-11.460938 25.601562-25.601563 0-14.136718-11.460937-25.601562-25.601562-25.601562zm0 34.136718c-4.710938 0-8.53125-3.820312-8.53125-8.535156 0-4.710937 3.820312-8.53125 8.53125-8.53125 4.714843 0 8.535156 3.820313 8.535156 8.53125 0 4.714844-3.820313 8.535156-8.535156 8.535156zm0 0"/><path d="m42.667969 213.332031h17.066406v17.066407h-17.066406zm0 0"/><path d="m34.132812 401.066406v17.066406c0 14.140626 11.460938 25.601563 25.601563 25.601563h392.53125c14.140625 0 25.601563-11.460937 25.601563-25.601563v-17.066406c0-14.136718-11.460938-25.601562-25.601563-25.601562h-392.53125c-14.140625 0-25.601563 11.464844-25.601563 25.601562zm426.667969 0v17.066406c0 4.714844-3.820312 8.535157-8.535156 8.535157h-392.53125c-4.714844 0-8.535156-3.820313-8.535156-8.535157v-17.066406c0-4.710937 3.820312-8.53125 8.535156-8.53125h392.53125c4.714844 0 8.535156 3.820313 8.535156 8.53125zm0 0"/><path d="m256 187.734375c37.703125 0 68.265625-30.566406 68.265625-68.269531 0-37.699219-30.5625-68.265625-68.265625-68.265625s-68.265625 30.566406-68.265625 68.265625c.042969 37.6875 30.582031 68.226562 68.265625 68.269531zm0-119.46875c28.277344 0 51.199219 22.925781 51.199219 51.199219 0 28.277344-22.921875 51.203125-51.199219 51.203125s-51.199219-22.925781-51.199219-51.203125c.027344-28.261719 22.933594-51.171875 51.199219-51.199219zm0 0"/><path d="m234.726562 152.492188c2.675782 1.515624 5.964844 1.472656 8.601563-.113282l42.667969-25.597656c4.039062-2.429688 5.34375-7.671875 2.914062-11.710938-.71875-1.195312-1.71875-2.199218-2.914062-2.917968l-42.667969-25.597656c-4.039063-2.429688-9.28125-1.121094-11.710937 2.917968-.796876 1.328125-1.21875 2.847656-1.21875 4.394532v51.199218c0 3.074219 1.65625 5.910156 4.328124 7.425782zm12.738282-43.546876 17.554687 10.519532-17.554687 10.523437zm0 0"/></svg>