<?xml version="1.0"?>
<svg xmlns="http://www.w3.org/2000/svg" height="512px" viewBox="1 1 511.99999 511.99999" width="512px"><path d="m45.714844 274.285156c0 5.050782-4.09375 9.144532-9.144532 9.144532-5.046874 0-9.140624-4.09375-9.140624-9.144532 0-5.050781 4.09375-9.140625 9.140624-9.140625 5.050782 0 9.144532 4.089844 9.144532 9.140625zm0 0" fill="#f75457"/><path d="m256 164.570312c30.296875 0 54.855469-24.558593 54.855469-54.855468s-24.558594-54.859375-54.855469-54.859375-54.855469 24.5625-54.855469 54.859375c.027344 30.285156 24.570313 54.828125 54.855469 54.855468zm-27.429688-82.285156c.003907-5.050781 4.097657-9.140625 9.144532-9.140625 1.660156 0 3.285156.453125 4.707031 1.304688l45.714844 27.429687c4.328125 2.601563 5.726562 8.21875 3.125 12.546875-.769531 1.28125-1.84375 2.351563-3.125 3.125l-45.714844 27.425781c-4.328125 2.601563-9.945313 1.199219-12.546875-3.128906-.851562-1.421875-1.304688-3.046875-1.304688-4.707031zm0 0" fill="#f75457"/><path d="m9.144531 320h18.285157v27.429688h18.285156v-27.429688h18.285156c5.050781 0 9.144531-4.09375 9.144531-9.144531v-109.710938c0-5.050781-4.09375-9.144531-9.144531-9.144531h-54.855469c-5.050781 0-9.144531 4.09375-9.144531 9.144531v109.710938c0 5.050781 4.09375 9.144531 9.144531 9.144531zm18.285157-109.714844h18.285156v18.285156h-18.285156zm9.140624 36.570313c15.148438 0 27.429688 12.28125 27.429688 27.429687 0 15.148438-12.28125 27.429688-27.429688 27.429688-15.148437 0-27.425781-12.28125-27.425781-27.429688 0-15.148437 12.277344-27.429687 27.425781-27.429687zm0 0" fill="#f75457"/><path d="m146.285156 338.285156v9.144532h219.429688v-9.144532c0-5.050781-4.09375-9.140625-9.144532-9.140625h-201.140624c-5.050782 0-9.144532 4.089844-9.144532 9.140625zm0 0" fill="#f75457"/><path d="m91.429688 201.144531v18.285157h329.140624v-18.285157c0-15.148437 12.28125-27.429687 27.429688-27.429687h18.285156v-173.714844h-420.570312v173.714844h18.285156c15.148438 0 27.429688 12.28125 27.429688 27.429687zm164.570312-164.574219c40.394531 0 73.144531 32.75 73.144531 73.144532 0 40.394531-32.75 73.140625-73.144531 73.140625s-73.144531-32.746094-73.144531-73.140625c.046875-40.378906 32.769531-73.097656 73.144531-73.144532zm0 0" fill="#f75457"/><path d="m91.429688 237.714844h329.140624v18.285156h-329.140624zm0 0" fill="#f75457"/><path d="m236.316406 274.285156-6.089844 36.570313h51.546876l-6.089844-36.570313zm0 0" fill="#f75457"/><path d="m484.570312 274.285156c0 5.050782-4.09375 9.144532-9.140624 9.144532-5.050782 0-9.144532-4.09375-9.144532-9.144532 0-5.050781 4.09375-9.140625 9.144532-9.140625 5.046874 0 9.140624 4.089844 9.140624 9.140625zm0 0" fill="#f75457"/><path d="m502.855469 365.714844h-493.710938c-5.050781 0-9.144531 4.09375-9.144531 9.140625v100.574219h512v-100.574219c0-5.046875-4.09375-9.140625-9.144531-9.140625zm-9.140625 64c0 15.148437-12.28125 27.429687-27.429688 27.429687h-420.570312c-15.148438 0-27.429688-12.28125-27.429688-27.429687v-18.285156c0-15.148438 12.28125-27.429688 27.429688-27.429688h420.570312c15.148438 0 27.429688 12.28125 27.429688 27.429688zm0 0" fill="#f75457"/><path d="m502.855469 192h-54.855469c-5.050781 0-9.144531 4.09375-9.144531 9.144531v109.710938c0 5.050781 4.09375 9.144531 9.144531 9.144531h18.285156v27.429688h18.285156v-27.429688h18.285157c5.050781 0 9.144531-4.09375 9.144531-9.144531v-109.710938c0-5.050781-4.09375-9.144531-9.144531-9.144531zm-36.570313 18.285156h18.285156v18.285156h-18.285156zm9.144532 91.429688c-15.148438 0-27.429688-12.28125-27.429688-27.429688 0-15.148437 12.28125-27.429687 27.429688-27.429687 15.148437 0 27.425781 12.28125 27.425781 27.429687 0 15.148438-12.277344 27.429688-27.425781 27.429688zm0 0" fill="#f75457"/><path d="m246.855469 98.441406v22.546875l18.808593-11.273437zm0 0" fill="#f75457"/><path d="m0 512h20.289062l4.570313-18.285156h-24.859375zm0 0" fill="#f75457"/><path d="m491.710938 512h20.289062v-18.285156h-24.859375zm0 0" fill="#f75457"/><path d="m45.714844 402.285156h420.570312c5.050782 0 9.144532 4.09375 9.144532 9.144532v18.285156c0 5.050781-4.09375 9.140625-9.144532 9.140625h-420.570312c-5.050782 0-9.144532-4.089844-9.144532-9.140625v-18.285156c0-5.050782 4.09375-9.144532 9.144532-9.144532zm0 0" fill="#f75457"/></svg>
